<svg xmlns="http://www.w3.org/2000/svg" height="1024" preserveAspectRatio="none" style="display: block;" version="1.1" viewBox="0 0 2048 2048" width="1024">
<path d="M 0 0 L 2048 0 L 2048 2048 L 0 2048 L 0 0 z" fill="rgb(254,254,254)" transform="translate(0,0)"></path>
<path d="M 947.049 272.557 C 937.206 257.607 925.108 244.542 913.42 230.995 L 861.369 171.663 C 847.124 155.628 834.955 139.41 821.432 122.859 C 810.248 109.172 794.06 96.4505 783.486 81.5039 C 779.28 75.5577 763.713 61.2788 769.888 52.564 C 773.536 47.4154 785.42 44.5093 788.468 51.2635 C 806.766 72.1156 823.363 94.0475 840.585 115.71 C 846.723 123.432 856.591 135.01 863.249 142.576 C 873.088 153.756 886.532 164.592 895.903 177.063 C 910.267 196.178 925.451 214.138 941.862 231.545 C 947.793 237.701 953.004 246.08 958.921 252.747 C 972.982 257.531 1051.54 171.652 1072.74 166.282 C 1076.71 168.246 1085.87 178.825 1089.13 182.789 C 1098.13 193.739 1108.46 204.331 1117.25 215.345 C 1129.32 230.476 1140.63 246.804 1155.58 259.543 C 1158.65 262.167 1158.06 261.306 1161 264.751 C 1165.93 269.887 1174.27 280.353 1179.15 286.028 C 1194.38 277.501 1223.32 249.055 1238.85 237.699 C 1243.54 234.264 1249.36 228.376 1254.6 225.486 C 1257.75 223.748 1255.89 225.451 1258.06 221.066 C 1265.68 212.96 1294.18 191.288 1304.69 182.303 L 1381.08 117.8 C 1393.39 107.443 1413.77 87.5579 1427.64 81.6648 C 1431.22 84.8454 1434.73 87.2769 1436.6 91.5501 C 1436.49 95.9841 1434.25 98.8655 1430.71 101.778 C 1353.3 165.383 1278.15 231.764 1200.51 295.118 C 1197.6 297.498 1195.58 301.186 1195.32 304.974 C 1204.02 316.534 1215.62 326.878 1224.96 338.337 C 1230.73 344.392 1233 356.349 1242.49 357.731 C 1245.11 358.113 1248.39 357.764 1250.4 356.035 C 1295.94 316.845 1341.85 278.022 1387.25 238.619 C 1391.37 235.042 1395.28 231.249 1400.15 228.69 C 1402.59 223.222 1410.22 218.545 1415.1 214.45 L 1454.92 181.411 L 1492.8 149.222 C 1497.96 144.828 1505.6 137.6 1511.05 134.433 C 1526.13 121.427 1534.92 114.689 1550.67 102.932 C 1558.84 98.6124 1565.65 108.774 1562.8 115.965 C 1561.29 119.767 1559.75 119.201 1556.55 120.425 C 1551.73 124.241 1547.59 128.981 1542.72 133.121 L 1477.79 187.794 C 1463.08 200.181 1432.51 223.53 1424.65 239.892 C 1491.97 243.227 1562.07 242.343 1629.42 244.519 L 1773.76 249.165 C 1808.02 250.378 1844.53 252.39 1878.69 252 C 1884 251.563 1889.72 250.977 1895 250.751 C 1897.56 253.308 1900.81 256.367 1903.08 259.105 C 1903.23 272.344 1898.16 304.586 1896.34 319.632 L 1881.31 442.451 L 1820.38 899.534 C 1818.36 915.891 1806.4 985.015 1808.38 995.788 C 1810.12 1005.27 1845.81 1039.66 1854.25 1049.81 L 1854.61 1060.86 C 1845.01 1069.38 1793.42 1112.13 1790.59 1118.38 C 1785.39 1129.83 1784.89 1150.25 1783.14 1162.99 L 1772.46 1240.26 L 1705.42 1740.94 L 1686.18 1894.96 C 1684.22 1909.8 1683.17 1925.45 1681.38 1940.38 C 1680.87 1944.66 1673.66 1947.92 1670.1 1949.79 C 1665.37 1949.02 1658.17 1948.05 1653.72 1946.98 C 1648.93 1946.88 1635.92 1944.4 1630.75 1943.53 C 1611.64 1940.35 1592.79 1937.51 1573.98 1932.87 C 1569.86 1931.86 1558.79 1932.04 1552.99 1931.07 C 1529.28 1927.08 1504.38 1922.49 1481.03 1918.17 C 1465.87 1915.36 1438.84 1913.13 1424.16 1910.45 C 1409.51 1907.78 1307.51 1889.77 1299.11 1893.06 C 1307.5 1913.64 1379.01 1986.52 1375.76 2001.35 C 1375.24 2003.76 1374.37 2005.3 1372.19 2006.58 C 1367.48 2009.35 1360.87 2008.21 1355.8 2007.55 C 1344.66 1995.03 1338.74 1983.61 1328.75 1971.6 C 1303.25 1941.51 1278.43 1910.87 1254.3 1879.68 C 1249.14 1873.01 1244.5 1866 1239.38 1859.29 C 1216.58 1829.39 1192.1 1800.96 1168.9 1771.39 L 1124.66 1715.8 C 1117.91 1707.32 1112.66 1699.39 1105.2 1691.43 C 1103.29 1692.29 1101.46 1693.31 1099.72 1694.48 C 1091.9 1699.82 1044.25 1737.42 1043.8 1743.6 C 1043.51 1747.69 1047.57 1753.32 1049.84 1756.65 C 1060.88 1772.82 1073.88 1787.69 1085.8 1803.2 C 1110.61 1835.9 1135.81 1868.29 1161.4 1900.38 C 1184.83 1929.69 1212.82 1963.44 1234.19 1994.21 L 1227.6 2005.03 C 1219.89 2007.62 1215 2010.78 1208.96 2002.42 C 1184.81 1968.97 1159.21 1936.99 1133.21 1904.99 C 1120.2 1888.97 1108.4 1871.4 1094.77 1855.69 C 1088.62 1848.6 1083.71 1839.07 1077.71 1831.73 C 1058.28 1809.34 1041.3 1785.02 1022.46 1762.19 C 1006.34 1770.37 985.056 1791.39 971.108 1803.12 C 957.263 1814.76 942.394 1825.98 929.345 1838.35 L 928.292 1838.56 L 926.535 1838.9 C 924.858 1839.23 919.104 1840.6 917.84 1839.18 C 897.856 1816.76 880.738 1789.95 860.469 1767.83 C 852.655 1772.6 845.85 1779.25 838.815 1785.2 L 800.328 1818.32 C 761.667 1852.41 722.738 1886.19 683.543 1919.67 C 680.174 1922.51 676.579 1925.53 673.218 1928.34 C 659.703 1939.66 645.61 1953.83 638.935 1927.72 C 644.528 1920.06 652.401 1912.88 659.518 1906.61 C 692.463 1876.84 729.962 1847.78 761.911 1817.44 C 776.528 1803.56 834.57 1759.31 842.534 1744.97 C 841.141 1737.59 802.463 1693.26 794.443 1681.84 C 780.87 1688.23 773.397 1700.38 762.141 1709.55 C 741.676 1726.21 719.699 1748.25 697.907 1762.76 C 697.627 1763.53 696.672 1766.31 695.923 1766.92 C 650.14 1804.57 606.812 1845.81 559.949 1882.24 C 545.551 1893.44 523.726 1922.59 505.924 1922.61 C 476.779 1910.24 530.953 1874.26 541.769 1864.98 L 598.251 1816.74 C 604.248 1811.69 613.042 1804.51 618.763 1798.88 C 619.494 1798.16 620.576 1790.53 620.826 1788.92 C 608.632 1790.65 537.815 1778.5 519.053 1775.79 L 358.553 1752.44 C 300.054 1743.58 241.731 1733.95 183.031 1726.36 C 166.36 1724.2 149.383 1721 132.683 1719.57 C 125.544 1714.52 124.507 1713.44 120.767 1705.53 C 126.582 1688.78 128.481 1679.64 131.504 1662.48 C 135.718 1645.98 138.736 1624.37 141.859 1607.22 L 157.809 1522.44 C 170.868 1451.73 185.742 1379.56 199.632 1308.72 L 235.618 1121.03 C 240.552 1095.79 246.129 1071.22 250.106 1045.75 C 252.117 1032.88 254.454 1023.44 255.12 1010.19 C 246.575 1002.19 241.057 993.547 233.493 984.528 C 215.716 963.328 184.879 932.499 173.668 908.283 C 185.094 900.325 288.501 814.801 291.574 808.909 C 296.746 798.99 300.732 766.301 303.107 753.735 L 314.131 698.326 L 371.826 406.503 L 394.925 285.706 C 398.494 266.974 401.962 248.222 405.534 229.495 C 407.226 223.059 408.74 215.377 416.869 215.299 C 442.412 215.053 468.257 216.676 493.803 217.504 L 675.84 221.8 C 693.093 222.156 710.355 222.191 727.612 222.422 C 737.213 222.55 749.757 224.088 758.881 223.278 C 761.736 219.369 760.924 215.646 757.366 212.415 C 748.274 205.116 742.295 193.059 734.597 184.91 C 722.108 171.69 712.101 158.292 700.977 144.126 C 686.61 125.828 666.179 110.196 654.706 89.5577 C 652.34 84.2275 652.653 78.545 658.62 76.1312 C 672.679 70.4447 675.131 85.0609 683.31 94.1651 C 695.55 107.788 708.079 122.468 721.236 135.509 C 728.535 142.743 734.402 153.131 741.065 161.07 C 745.457 166.12 750.161 170.458 754.602 175.506 C 767.263 189.895 780.295 204.277 792.517 219.02 C 795.6 222.739 794.016 228.128 800.769 230.767 C 806.331 232.94 809.892 241.692 814.342 245.64 C 828.336 261.775 841.96 278.292 855.956 294.43 C 864.722 304.572 870.639 314.743 881.075 323.581 L 882.572 324.824 C 896.132 315.45 907.766 303.665 920.338 293.039 C 929.058 285.668 938.291 279.769 947.049 272.557 z" fill="rgb(77,23,67)" transform="translate(0,0)"></path>
<path d="M 1550.67 102.932 C 1558.84 98.6124 1565.65 108.774 1562.8 115.965 C 1561.29 119.767 1559.75 119.201 1556.55 120.425 C 1551.73 124.241 1547.59 128.981 1542.72 133.121 L 1477.79 187.794 C 1463.08 200.181 1432.51 223.53 1424.65 239.892 C 1491.97 243.227 1562.07 242.343 1629.42 244.519 L 1773.76 249.165 C 1808.02 250.378 1844.53 252.39 1878.69 252 L 1879.63 252.288 C 1887.45 254.604 1892.49 252.493 1896.83 257.892 C 1901.55 272.358 1882.32 385.69 1879.47 407.689 L 1827.57 803.634 L 1811.26 922.795 C 1808.22 944.633 1804.29 966.145 1802.92 988.27 C 1802.4 996.752 1805.18 1002.51 1808.92 1009.76 C 1806.76 1008.88 1804.45 1007.96 1802.99 1006.05 C 1796.65 997.808 1800.42 964.067 1801.37 952.282 C 1802.49 938.476 1806.11 924.508 1808.57 910.861 C 1810.74 898.866 1811.4 886.756 1813.08 874.703 C 1813.9 868.8 1815.74 863.008 1816.45 857.194 C 1819.12 835.609 1819.23 813.575 1821.49 791.988 C 1823.27 775.012 1828.07 757.69 1830.85 740.794 C 1832.62 730.043 1832.38 718.524 1833.72 707.614 C 1836.3 686.425 1840.49 664.89 1844.46 643.911 C 1845.51 638.323 1845.21 632.891 1845.79 627.265 C 1847.44 611.253 1850.53 595.341 1852.37 579.336 C 1852.98 574.126 1852.05 568.145 1853.13 563.146 C 1853.48 561.541 1854.13 560.321 1854.95 558.935 C 1858.67 552.702 1856.91 540.475 1858.34 532.923 C 1859.11 528.905 1861.08 525.244 1861.81 521.334 C 1863.05 514.648 1861.77 507.353 1863.82 500.763 C 1867.24 489.748 1867.17 475.899 1868.57 464.275 C 1870.86 445.198 1873.56 426.108 1875.54 407.002 C 1877.98 383.463 1885.33 279.664 1893.86 266.52 C 1894.99 264.772 1895.1 265.373 1895.04 263.538 C 1894.95 260.997 1893.81 258.692 1891.71 257.186 C 1888.85 255.135 1881.18 257.607 1877.82 258.462 C 1868.32 260.878 1856.99 257.222 1847.27 256.383 C 1837.76 255.562 1827.81 254.987 1818.28 255.31 C 1812.41 255.508 1809.56 256.095 1805.49 260.51 C 1824.93 260.099 1837.58 266.57 1856.53 262.474 C 1863.94 260.872 1874.22 265.852 1880.17 270.837 L 1882.15 270.899 C 1887.69 280.81 1880.63 308.659 1882.05 320.887 C 1882.23 322.45 1881.98 323.277 1881.51 324.704 C 1881.39 331.038 1879.49 335.178 1878.78 341.774 C 1878.16 347.53 1877.93 352.66 1877.53 358.389 C 1877.43 359.827 1875.01 363.368 1874.4 364.739 C 1870.32 373.885 1873.53 390.478 1871.76 400.456 C 1869.16 415.163 1866.91 430.444 1863.74 444.846 C 1861.7 454.073 1863.4 461.686 1862.34 470.079 C 1859.76 490.521 1856.01 511.298 1852.86 531.575 C 1851.56 539.869 1849.59 580.961 1846.33 584.681 C 1844.42 594.84 1845.64 605.365 1843.9 615.021 C 1841.23 629.821 1837.07 646.129 1835.01 660.945 C 1833.44 672.266 1834.09 689.199 1833.07 700.735 C 1832.35 708.83 1827.27 722.494 1825.76 730.77 C 1820.64 758.838 1818.67 786.23 1815.93 814.579 C 1814.97 824.417 1807.33 821.41 1809.24 836.287 C 1810.2 843.763 1805.9 849.046 1804.89 856.476 C 1803.71 865.177 1802.41 872.482 1802.45 881.385 L 1804.66 880.373 C 1804.89 875.765 1804.87 875.591 1807.19 871.721 L 1808.61 872.444 C 1808.19 878.303 1805.25 895.009 1802.33 899.998 C 1801.67 897.014 1803.25 889.715 1802.98 885.031 C 1801.72 887.132 1800.46 897.966 1799.74 901.054 C 1798.52 906.293 1794.03 922.408 1797.65 926.401 C 1799.21 920.65 1799.55 913.497 1801.46 909.513 L 1802.17 910.392 C 1802.36 914.334 1802.05 920.54 1800.96 925.567 C 1798.58 937.623 1797.73 979.23 1776.7 973.244 C 1766.68 970.392 1752.57 943.431 1745.88 935.982 C 1733.28 921.953 1717.79 910.072 1705.34 895.856 C 1703.24 893.469 1700.74 886.214 1699.56 883.08 C 1704.09 865.84 1699.38 845.153 1701.83 827.109 C 1702.53 821.928 1704.97 817.039 1705.26 813.751 C 1707.26 791.417 1711.56 769.562 1715.43 747.507 C 1717.44 736.063 1716.41 720.661 1718.02 709.52 C 1720.59 691.695 1723.8 673.433 1726.69 655.647 C 1729.12 640.735 1733.11 632.546 1732.7 617.445 C 1732.28 602.246 1737.84 579.557 1740.89 564.427 C 1742.33 557.277 1739.24 538.241 1740.91 530.961 C 1747.77 526.557 1745.12 525.184 1746.85 518.238 C 1750.71 498.974 1752.15 477.509 1753.57 457.608 C 1755.77 426.727 1769 398.019 1765.43 366.703 C 1765.28 365.361 1763.66 363.482 1762.18 363.609 C 1738.53 365.641 1714.15 361.423 1691.03 361.096 L 1558.49 360.425 C 1552.14 360.349 1542.93 357.867 1534.99 357.695 C 1473.91 356.375 1412.96 352.702 1351.91 349.508 C 1345.16 348.893 1304.38 350.705 1300.91 347.712 C 1280.83 330.4 1330.6 305.424 1336.43 301.224 C 1349.37 291.886 1353.61 282.478 1363 274.876 C 1374.77 265.36 1379.87 264.197 1389.5 254.51 C 1410.44 254.956 1434.15 250.206 1457.15 251.324 C 1474.31 252.158 1492.34 254.758 1508.55 255.427 C 1522.52 256.003 1541.76 253.39 1557.25 254.421 C 1565.63 253.642 1576.09 256.896 1584.05 256.41 C 1622.65 254.056 1660.38 259.966 1698.88 255.903 C 1709.52 254.78 1719.08 260.212 1730.98 256.247 L 1730.06 255.663 C 1717.35 255.192 1705.04 252.51 1692.87 252.039 C 1643.25 250.094 1593.77 249.042 1544.11 248.914 C 1527.62 248.871 1512.52 246.3 1495.72 248.252 C 1489.38 248.988 1476.17 245.17 1468.32 245.246 C 1454.33 244.909 1439.79 248.768 1425.96 246.931 C 1421.8 246.378 1418.74 238.421 1416.53 234.772 C 1417.19 224.535 1462.85 188.533 1472.52 179.765 C 1478.2 174.617 1489.96 174.134 1488.96 166.262 C 1495.58 157.149 1503.52 154.546 1511.82 147.467 C 1512.49 144.572 1512.26 144.363 1514.17 142.192 C 1527.81 138.238 1527.88 138.261 1538.71 129.43 C 1540.19 129.146 1541.74 128.703 1543.21 128.325 C 1547.69 122.946 1557.75 115.429 1557.36 108.321 C 1555.8 105.3 1553.69 104.608 1550.67 102.932 z" fill="rgb(115,62,114)" transform="translate(0,0)"></path>
<path d="M 1880.17 270.837 L 1882.15 270.899 C 1887.69 280.81 1880.63 308.659 1882.05 320.887 C 1882.23 322.45 1881.98 323.277 1881.51 324.704 L 1877.58 331.633 L 1875.37 332.163 C 1875.39 331.626 1874.95 325.822 1874.57 327.073 C 1878.64 313.747 1875.67 281.604 1880.17 270.837 z" fill="rgb(112,57,119)" transform="translate(0,0)"></path>
<path d="M 1301.23 344.403 C 1308.23 326.649 1344.32 303.514 1359.32 289.325 C 1365.2 283.771 1390.61 260.789 1396.93 260.364 C 1421.85 258.685 1448.57 260.205 1473.74 260.983 C 1514.32 261.997 1554.89 263.283 1595.44 264.841 L 1791.81 270.681 C 1806.16 271.174 1862.91 271.475 1872.2 275.762 C 1878.41 285.648 1874.2 305.068 1872.88 316.621 C 1870.75 334.325 1868.77 352.046 1866.94 369.782 C 1861.19 423.717 1853.21 477.883 1846.6 531.735 C 1845.58 540.031 1844.41 548.266 1843.82 556.611 C 1840.32 570.785 1840.36 579.515 1838.35 593.558 L 1827.42 674.347 L 1800.64 871.582 L 1793.31 926.808 C 1792.25 934.874 1791.41 947.955 1789.25 955.198 C 1781.91 979.897 1765.24 957.187 1758.68 948.088 C 1745.65 930.004 1729.51 915.958 1715.16 899.198 C 1701.95 883.767 1709.48 869.8 1710.63 851.757 C 1712.81 826.041 1717.72 800.563 1721.02 775.033 C 1724.77 749.143 1726.34 721.978 1730.34 696.272 C 1735.32 664.189 1739.88 633.094 1743.32 600.827 C 1746.12 574.527 1750.23 547.412 1753.45 521.103 C 1756.3 497.844 1762.64 474.128 1764.38 450.354 C 1766.18 434.791 1770.24 419.369 1770.5 403.342 C 1770.71 391.082 1780.75 373.56 1772.48 362.884 C 1771.07 361.069 1767.83 359.121 1765.65 359.503 C 1755.39 359.253 1745.08 359.307 1734.79 359.242 C 1714.52 359.12 1694.25 358.717 1673.99 358.034 L 1301.23 344.403 z" fill="rgb(254,254,254)" transform="translate(0,0)"></path>
<path d="M 1878.69 252 C 1884 251.563 1889.72 250.977 1895 250.751 C 1897.56 253.308 1900.81 256.367 1903.08 259.105 C 1903.23 272.344 1898.16 304.586 1896.34 319.632 L 1881.31 442.451 L 1820.38 899.534 C 1818.36 915.891 1806.4 985.015 1808.38 995.788 C 1810.12 1005.27 1845.81 1039.66 1854.25 1049.81 L 1854.61 1060.86 C 1845.01 1069.38 1793.42 1112.13 1790.59 1118.38 C 1785.39 1129.83 1784.89 1150.25 1783.14 1162.99 L 1772.46 1240.26 L 1705.42 1740.94 L 1686.18 1894.96 C 1684.22 1909.8 1683.17 1925.45 1681.38 1940.38 C 1680.87 1944.66 1673.66 1947.92 1670.1 1949.79 C 1665.37 1949.02 1658.17 1948.05 1653.72 1946.98 C 1661.24 1945.46 1663.57 1945.83 1671.04 1945.56 C 1681.26 1940.08 1680.85 1908.07 1680.11 1897.71 C 1680.17 1892.62 1682.19 1885.09 1682.71 1879.75 C 1688.23 1822.83 1696.45 1764.82 1703.93 1708.18 L 1753 1333.89 C 1762.06 1267.6 1770.45 1189.11 1782.95 1122.57 C 1786.92 1101.42 1839.41 1076.85 1848.66 1052.55 C 1833.13 1032.7 1822.01 1028.58 1808.92 1009.76 C 1805.18 1002.51 1802.4 996.752 1802.92 988.27 C 1804.29 966.145 1808.22 944.633 1811.26 922.795 L 1827.57 803.634 L 1879.47 407.689 C 1882.32 385.69 1901.55 272.358 1896.83 257.892 C 1892.49 252.493 1887.45 254.604 1879.63 252.288 L 1878.69 252 z" fill="rgb(149,162,178)" transform="translate(0,0)"></path>
<path d="M 1299.11 1893.06 L 1298.83 1889.48 C 1300.44 1887.79 1301.83 1887.24 1304.33 1887.59 C 1358.27 1895.17 1412.04 1904.12 1465.95 1912.1 C 1472.36 1913.05 1479.07 1913.2 1485.51 1914.2 L 1601.04 1933.27 C 1622.51 1936.87 1647.1 1939.76 1668.25 1943.97 L 1675.47 1935.07 C 1675.41 1925.96 1676.47 1906.02 1680.11 1897.71 C 1680.85 1908.07 1681.26 1940.08 1671.04 1945.56 C 1663.57 1945.83 1661.24 1945.46 1653.72 1946.98 C 1648.93 1946.88 1635.92 1944.4 1630.75 1943.53 C 1611.64 1940.35 1592.79 1937.51 1573.98 1932.87 C 1569.86 1931.86 1558.79 1932.04 1552.99 1931.07 C 1529.28 1927.08 1504.38 1922.49 1481.03 1918.17 C 1465.87 1915.36 1438.84 1913.13 1424.16 1910.45 C 1409.51 1907.78 1307.51 1889.77 1299.11 1893.06 z" fill="rgb(125,128,185)" transform="translate(0,0)"></path>
<path d="M 1511.05 134.433 L 1513.44 137.703 C 1497.89 152.954 1486.66 165.25 1466.25 174.839 C 1463.81 175.986 1459.64 186.621 1455.74 188.056 C 1454.01 189.112 1441.88 200.45 1440.63 200.469 C 1441.6 199.004 1443.18 196.988 1443.59 195.429 C 1439.5 196.641 1439.01 196.594 1435.93 199.348 L 1435.12 201.429 L 1437.1 204.126 C 1434.82 210.55 1406.13 224.763 1400.15 228.69 C 1402.59 223.222 1410.22 218.545 1415.1 214.45 L 1454.92 181.411 L 1492.8 149.222 C 1497.96 144.828 1505.6 137.6 1511.05 134.433 z" fill="rgb(115,62,114)" transform="translate(0,0)"></path>
<path d="M 1550.67 102.932 C 1553.69 104.608 1555.8 105.3 1557.36 108.321 C 1557.75 115.429 1547.69 122.946 1543.21 128.325 C 1541.74 128.703 1540.19 129.146 1538.71 129.43 C 1543.4 124.87 1550.67 117.383 1552.71 111.216 L 1551.87 109.349 C 1537.29 110.952 1522.7 127.745 1513.44 137.703 L 1511.05 134.433 C 1526.13 121.427 1534.92 114.689 1550.67 102.932 z" fill="rgb(112,57,119)" transform="translate(0,0)"></path>
<path d="M 513.744 933.91 C 534.39 913.892 562.228 891.87 584.565 873.582 L 658.388 812.253 L 863.863 640.406 L 978.449 544.973 C 990.083 535.263 1014.68 511.622 1026.81 505.473 C 1039.97 517.243 1056.85 537.801 1068.78 551.695 L 1123.4 615.158 C 1138.63 633.087 1155.58 650.51 1171.16 668.223 C 1188.3 687.726 1205.2 707.438 1222.33 726.963 C 1223.97 727.618 1226.85 728.883 1228.03 730.098 C 1243.01 745.404 1257.86 761.788 1272.15 777.713 C 1279.7 786.121 1307.78 815.216 1308.78 825.069 C 1324.92 845.858 1344.58 864.678 1360.86 884.902 C 1389.85 920.913 1423.67 954.172 1452.5 989.867 C 1461.5 1003.08 1482.88 1022.29 1486.75 1034.19 C 1481.89 1043.6 1394.84 1115.16 1379.93 1127.95 L 1057.35 1399.73 C 1033.02 1420.16 991.145 1456.6 964.166 1477.44 C 963.183 1477.54 962.201 1477.63 961.218 1477.73 C 954.917 1475.34 891.639 1395.71 882.169 1383.64 C 840.513 1330.52 796.606 1278.91 753.595 1226.87 C 745.64 1217.25 738.374 1207.1 730.457 1197.45 L 639.66 1087.97 L 561.214 993.009 C 546.323 975.131 526.073 953.237 513.744 933.91 z" fill="rgb(254,254,254)" transform="translate(0,0)"></path>
<path d="M 1222.33 726.963 C 1223.97 727.618 1226.85 728.883 1228.03 730.098 C 1243.01 745.404 1257.86 761.788 1272.15 777.713 C 1279.7 786.121 1307.78 815.216 1308.78 825.069 C 1298.46 815.956 1278.62 792.28 1268.72 781.073 C 1254.51 764.974 1234.32 743.809 1222.33 726.963 z" fill="rgb(106,88,128)" transform="translate(0,0)"></path>
<path d="M 1020.57 540.824 C 1030.44 550.407 1041.94 564.202 1050.93 574.709 C 1078.17 603.034 1101.59 635.15 1127.71 663.65 C 1164.29 703.571 1198.85 744.384 1234.64 784.831 L 1376.19 946.416 C 1390.33 962.532 1404.56 978.567 1418.88 994.52 C 1428.57 1005.38 1445.17 1020.36 1447.27 1034.61 C 1432.08 1050.56 1413.1 1062.98 1397.29 1076.56 L 1270.23 1184.88 C 1263.38 1190.74 1257.02 1197.78 1250.37 1203.4 C 1233.19 1217.92 1216.31 1232.87 1199.2 1247.44 L 1123.53 1312.01 C 1116.19 1318.24 1107.3 1323.99 1100.46 1330.24 C 1072.68 1355.63 1044.1 1379.64 1015.13 1403.65 C 1004.46 1412.49 993.943 1422.03 982.954 1430.59 C 978.329 1434.2 971.356 1440.82 966.703 1443.76 C 958.89 1439.63 920.185 1388.45 911.849 1378.39 C 895.636 1358.83 877.394 1337.16 861.385 1317.29 C 800.992 1242.54 739.95 1168.31 678.265 1094.61 C 646.63 1057.49 615.519 1019.93 584.941 981.932 C 575.364 970.195 556.534 949.56 549.029 938.638 C 550.215 929.701 574.572 913.111 582.176 906.85 L 649.114 852.215 C 672.253 833.427 694.552 812.48 717.508 793.515 C 736.914 777.482 756.904 761.921 776.323 745.777 C 787.966 734.461 805.006 721.324 817.903 710.715 L 882.787 657.322 C 884.577 654.634 898.791 643.429 902.243 640.661 C 912.19 631.327 930.527 617.118 941.59 607.89 C 968.316 586.008 994.649 563.649 1020.57 540.824 z" fill="rgb(77,23,67)" transform="translate(0,0)"></path>
<path d="M 873.505 810.48 C 885.948 809.415 924.214 811.433 936.246 814.079 C 935.285 838.312 910.788 983.828 913.468 992.012 C 914.286 994.51 915.788 995.446 917.958 996.617 C 924.276 996.117 968.137 951.895 976.427 943.957 L 1072.22 852.4 C 1081.62 843.384 1095.53 828.33 1105.37 821.225 C 1116.61 821.609 1167.67 823.988 1175.84 827.231 L 1176.21 829.384 C 1174.14 833.442 1156.06 848.716 1151.68 852.567 L 1106.88 891.913 C 1085.86 910.083 1064.98 928.412 1044.23 946.899 C 1035.31 954.798 1016.86 968.938 1012.08 978.789 C 1013 983.231 1015.91 990.216 1018.45 993.993 C 1045.71 1034.43 1070.67 1077.48 1097.06 1118.3 C 1114.06 1142.91 1129.13 1171.68 1146.98 1196.2 C 1149.58 1199.76 1152.88 1206.68 1151.78 1211.02 C 1146.77 1213.24 1087.97 1205.08 1079.11 1203.64 C 1062.19 1173.16 1038.09 1136.93 1019.51 1106.28 L 988.254 1055.46 C 982.077 1045.37 976.079 1035.17 969.362 1025.44 C 967.513 1022.77 961.367 1019.54 959.267 1021.23 C 939.216 1037.33 921.96 1056.56 902.008 1072.93 C 893.953 1097.3 893.257 1172.44 883.738 1185.89 C 878.888 1189.57 860.981 1185.02 854.181 1184.79 C 847.831 1184.58 832.907 1184.61 828.161 1180.91 C 826.412 1169.06 837.011 1098.69 839.237 1081.67 L 860.492 911.855 C 863.036 891.777 865.425 871.679 867.656 851.563 C 869.042 839.322 870.392 821.783 873.505 810.48 z" fill="rgb(254,254,254)" transform="translate(0,0)"></path>
<path d="M 1258.89 377.878 C 1257.17 375.633 1257.09 375.812 1256.67 373.065 C 1258.16 367.913 1260.16 365.814 1264.96 363.366 C 1284.84 353.214 1305.32 356.256 1326.3 357.788 C 1336.26 357.219 1346.22 353.23 1355.96 357.79 C 1366.03 362.502 1375.29 357.902 1385.28 358.145 C 1399.42 358.489 1415.56 357.52 1429.27 360.81 C 1437.75 362.845 1445.83 357.719 1454.48 360.206 C 1466.67 361.928 1479.44 363.601 1491.72 364.37 C 1498.47 364.792 1507.32 363.21 1514.44 363.484 C 1534.04 364.239 1552.96 365.209 1572.59 364.573 C 1586.07 364.764 1601.3 370.718 1614.46 368.455 C 1623.45 366.907 1631.32 367.632 1640.5 367.994 C 1670.9 369.191 1700.99 369.394 1731.41 369.32 C 1738.44 369.303 1754.98 378.299 1754.56 386.731 C 1752.71 423.181 1749.95 463.38 1738.14 498.042 C 1736.92 501.63 1738.78 515.613 1737.97 520.183 C 1737.71 528.077 1737.56 535.869 1736.9 543.775 C 1736.07 553.628 1727.22 554.532 1728.35 565.651 C 1729.46 576.566 1721.08 579.97 1729.27 590.737 C 1728.66 616.337 1724.5 641.175 1721.04 666.5 C 1718.55 684.769 1717.2 702.394 1713.48 720.447 C 1712.74 723.988 1714.81 727.403 1714.28 730.973 C 1712.91 740.135 1708.72 748.965 1707.2 758.114 C 1706.31 763.426 1708.17 769.504 1707.8 775.058 C 1706.88 788.849 1699.21 851.884 1690.25 858.908 C 1685.87 862.338 1679.94 861.351 1674.86 860.824 C 1664.61 850.688 1606.96 785.856 1606.44 777.92 C 1595.02 761.583 1567.07 733.579 1553.09 717.925 L 1467.31 620.408 C 1462.25 614.716 1460.42 607.342 1456.02 602.528 C 1419.86 562.996 1384.57 522.567 1348.72 482.888 C 1318.14 449.047 1288.48 412.616 1258.89 377.878 z" fill="rgb(254,254,254)" transform="translate(0,0)"></path>
<path d="M 1258.89 377.878 C 1257.17 375.633 1257.09 375.812 1256.67 373.065 C 1258.16 367.913 1260.16 365.814 1264.96 363.366 C 1284.84 353.214 1305.32 356.256 1326.3 357.788 C 1336.26 357.219 1346.22 353.23 1355.96 357.79 C 1366.03 362.502 1375.29 357.902 1385.28 358.145 C 1399.42 358.489 1415.56 357.52 1429.27 360.81 C 1437.75 362.845 1445.83 357.719 1454.48 360.206 C 1466.67 361.928 1479.44 363.601 1491.72 364.37 C 1498.47 364.792 1507.32 363.21 1514.44 363.484 C 1534.04 364.239 1552.96 365.209 1572.59 364.573 C 1586.07 364.764 1601.3 370.718 1614.46 368.455 C 1623.45 366.907 1631.32 367.632 1640.5 367.994 C 1670.9 369.191 1700.99 369.394 1731.41 369.32 C 1738.44 369.303 1754.98 378.299 1754.56 386.731 C 1752.71 423.181 1749.95 463.38 1738.14 498.042 C 1736.92 501.63 1738.78 515.613 1737.97 520.183 C 1737.71 528.077 1737.56 535.869 1736.9 543.775 C 1736.07 553.628 1727.22 554.532 1728.35 565.651 C 1729.46 576.566 1721.08 579.97 1729.27 590.737 C 1728.66 616.337 1724.5 641.175 1721.04 666.5 C 1718.55 684.769 1717.2 702.394 1713.48 720.447 C 1712.74 723.988 1714.81 727.403 1714.28 730.973 C 1712.91 740.135 1708.72 748.965 1707.2 758.114 C 1706.31 763.426 1708.17 769.504 1707.8 775.058 C 1706.88 788.849 1699.21 851.884 1690.25 858.908 C 1685.87 862.338 1679.94 861.351 1674.86 860.824 C 1664.61 850.688 1606.96 785.856 1606.44 777.92 C 1623.36 786.958 1671.06 862.753 1685.88 855.206 C 1691.93 839.628 1695.14 792.849 1697.54 773.382 L 1715.05 637.567 C 1717.28 620.102 1721.7 602.245 1723.67 584.87 C 1729.74 531.528 1738.99 478.726 1744.72 425.378 C 1745.89 414.423 1749.11 402.777 1747.54 391.976 C 1746.61 385.572 1742.17 383.034 1737.14 379.899 C 1585.87 374.679 1433.38 365.732 1281.93 363.763 C 1270.34 363.612 1262.71 366.234 1258.89 377.878 z" fill="rgb(115,62,114)" transform="translate(0,0)"></path>
<path d="M 1266.26 1736.21 C 1246.82 1731.62 1167.8 1724.14 1157.83 1716.83 C 1150.62 1711.55 1133.11 1688.99 1128.61 1680.9 C 1126.94 1677.91 1126.2 1674.98 1125.7 1671.62 C 1126.54 1669.91 1168.82 1635.1 1173.79 1631.16 C 1219.67 1594.78 1263.12 1555.61 1308.16 1518.21 C 1316.96 1510.9 1326.52 1504.46 1335.01 1497.3 L 1512.42 1346.94 C 1542.77 1321.5 1570.1 1292.02 1602.73 1269.02 C 1608.92 1264.65 1619.5 1252.96 1626.89 1257.15 C 1629.69 1263.03 1625.09 1283.54 1623.86 1291.76 C 1616.27 1339.22 1608.76 1386.39 1603.04 1434.13 C 1600.86 1452.38 1596.5 1470.32 1594.13 1488.23 L 1573.95 1641.08 C 1569.66 1674.22 1565.44 1707.7 1560.39 1740.59 C 1559.23 1748.19 1555.32 1773.73 1550.37 1776.49 C 1544.19 1779.94 1512.36 1774 1504.02 1772.82 C 1474.79 1768.85 1445.65 1764.22 1416.63 1758.94 C 1379.72 1752.57 1341.57 1747.79 1304.48 1741.89 C 1296.77 1740.67 1272.4 1735.92 1266.26 1736.21 z" fill="rgb(254,254,254)" transform="translate(0,0)"></path>
<path d="M 357.153 1144.8 C 377.568 1166.07 397.418 1192.93 415.702 1216.3 C 437.376 1244.17 459.547 1271.64 482.203 1298.71 L 680.492 1541.35 L 738.265 1612.91 C 746.149 1622.55 773.001 1651.25 773.958 1661.49 C 772.711 1665.18 772.585 1665.05 770.057 1667.79 C 764.649 1668.96 709.952 1660.07 700.228 1658.76 C 668.026 1654.63 636.755 1649.15 604.695 1644.58 L 414.279 1617.52 C 368.52 1610.64 319.937 1602.56 274.217 1596.86 C 275.187 1576.85 283.365 1542.93 287.046 1521.9 C 291.401 1497.01 296.391 1471.47 300.881 1446.55 L 339.425 1232.98 C 342.101 1218.57 351.782 1154.43 357.153 1144.8 z" fill="rgb(254,254,254)" transform="translate(0,0)"></path>
<path d="M 1574.38 1799.29 C 1581.02 1782.6 1580.58 1760.88 1582.5 1743.05 C 1583.9 1730.05 1585.97 1716.78 1587.83 1703.82 L 1616.29 1498.45 C 1622.37 1451.58 1626.59 1396.3 1636.81 1350.46 C 1644.64 1315.37 1645.61 1258.97 1655.88 1228.64 L 1656.45 1226.96 C 1660.06 1216.7 1730.89 1160.99 1742.37 1149.93 C 1746.21 1146.23 1752.5 1141.48 1758.06 1144.46 C 1761.72 1150.31 1761.06 1157.77 1759.75 1164.33 C 1753.9 1193.76 1750.72 1223.47 1746.24 1253.03 C 1745.59 1264.82 1742.63 1280.98 1740.46 1292.69 C 1730.76 1343.68 1726.5 1396.46 1717.54 1447.67 C 1713.68 1470.14 1714.26 1493.9 1710.45 1516.23 C 1697.85 1590.12 1691.89 1665 1678.79 1738.75 C 1678.27 1741.67 1675.55 1750.35 1676.49 1752.6 C 1679.22 1759.09 1675.8 1764.48 1674.51 1771.15 C 1665.87 1815.69 1666.7 1870.84 1652.46 1913.28 C 1648 1916.25 1644.71 1917.92 1639.18 1917.25 C 1621.02 1915.07 1602.98 1912.14 1584.91 1909.43 L 1457.09 1889.44 C 1413.97 1883 1371.11 1876.56 1328.24 1868.58 C 1309.91 1865.17 1290.07 1864.74 1271.92 1859.4 C 1263.86 1851.44 1188.57 1755.73 1187.75 1751.61 C 1187.53 1750.53 1187.63 1750.55 1188.37 1749.69 C 1192.14 1745.27 1201.33 1747.58 1206.61 1748.17 C 1215.88 1749.21 1224.91 1751.69 1234.1 1753.22 C 1243.47 1754.78 1252.99 1755.14 1262.32 1757.13 C 1273.62 1759.54 1284.8 1762.99 1296.21 1764.8 C 1321.31 1768.79 1346.83 1770.99 1371.98 1774.93 C 1379.59 1776.12 1386.96 1779.67 1394.54 1780.53 C 1398.27 1780.96 1402.05 1779.42 1405.88 1779.77 C 1416.47 1780.75 1427.39 1783.22 1437.95 1784.91 C 1453.69 1787.42 1469.49 1789.47 1485.25 1791.9 C 1511.66 1795.96 1541.3 1806.3 1567.83 1803.94 L 1574.38 1799.29 z" fill="rgb(254,254,254)" transform="translate(0,0)"></path>
<path d="M 274.905 1044.26 C 291.471 1058.96 323.673 1107.79 334.876 1114.09 C 337.715 1127.74 327.116 1171.49 324.233 1188.15 C 309.831 1270.13 294.703 1351.99 278.851 1433.7 C 271.928 1468.33 265.36 1503.02 259.148 1537.77 C 255.327 1558.3 250.761 1580.55 247.789 1601.02 C 244.432 1612.4 245.512 1615.52 256.104 1622.58 C 302.365 1626.27 362.849 1636.65 409.606 1643.72 L 616.359 1673.36 L 688.788 1684.05 C 695.569 1685.04 718.63 1689.97 723.238 1686.37 C 728.809 1687.32 734.403 1687.54 738.573 1690.98 C 739.728 1694.21 739.656 1692.61 738.736 1695.97 C 729.615 1704.17 653.363 1768.74 649.314 1768.9 C 594.767 1758.48 541.512 1752.21 486.912 1744.21 L 288.521 1713.49 C 263.602 1709.64 238.722 1705.58 213.813 1701.67 C 193.746 1698.53 173.769 1697.32 154.287 1691.61 C 154.661 1677.56 160.013 1655.73 162.156 1640.61 L 165.975 1620.26 C 168.155 1610.58 169.862 1596.89 171.693 1586.54 C 175.958 1562.66 180.366 1538.81 184.917 1514.99 C 203.982 1415.65 222.446 1316.19 240.31 1216.63 C 241.363 1214.53 243.015 1204.82 243.459 1202.25 C 251.361 1156.68 261.172 1111.46 268.888 1065.84 C 270.16 1058.31 271.67 1051.2 274.905 1044.26 z" fill="rgb(254,254,254)" transform="translate(0,0)"></path>
<path d="M 423.354 240.609 C 425.7 237.101 425.519 237.017 428.983 234.83 C 433.851 234.044 448.473 235.012 453.994 235.21 C 468.061 235.689 482.134 236.01 496.209 236.172 C 589.222 236.999 682.224 239.936 775.215 242.094 C 778.115 242.161 783.435 242.775 785.492 244.687 C 793.116 251.773 800.172 261.175 806.779 269.184 C 823.475 289.422 842.832 307.63 855.34 330.905 L 854.03 331.038 C 831.386 333.117 782.536 330.422 757.953 329.697 L 574.027 324.691 C 551.013 324.135 528.266 322.909 505.31 322.165 C 501.662 322.047 489.657 322.521 487.739 325.379 C 485.381 328.892 483.128 335.246 482.335 339.593 C 476.608 370.954 471.1 402.742 465.167 434.048 C 452.099 499.725 439.569 565.508 427.58 631.39 C 424.777 646.509 422.056 661.643 419.416 676.791 C 417.207 689.699 415.817 700.862 411.775 713.403 C 401.51 722.722 326.164 783.946 319.39 786.435 C 318.599 788.387 318.809 787.81 317.333 789.474 L 316.055 788.803 C 314.15 781.339 326.785 721.745 329.115 710.252 L 351.768 595.791 L 401.106 341.63 C 406.8 312.395 410.863 282.859 417.473 253.785 C 418.768 248.09 418.983 244.577 423.354 240.609 z" fill="rgb(254,254,254)" transform="translate(0,0)"></path>
<path d="M 319.39 786.435 C 318.599 788.387 318.809 787.81 317.333 789.474 L 316.055 788.803 C 314.15 781.339 326.785 721.745 329.115 710.252 L 351.768 595.791 L 401.106 341.63 C 406.8 312.395 410.863 282.859 417.473 253.785 C 418.768 248.09 418.983 244.577 423.354 240.609 C 421.659 259.772 415.048 283.921 411.751 303.069 C 405.843 337.369 399.365 370.958 392.597 405.051 L 338.542 682.698 C 335.074 700.482 318.266 774.156 319.39 786.435 z" fill="rgb(106,88,128)" transform="translate(0,0)"></path>
<path d="M 502.811 340.295 C 504.304 339.804 513.316 336.792 514.163 336.817 C 538.895 337.559 564.233 337.953 588.911 338.959 L 771.901 347.171 C 790.456 347.875 813.087 343.092 832.62 345.927 C 839.782 346.966 847.158 346.288 847.548 355.531 C 846.21 358.099 846.39 358 843.999 359.59 C 828.925 369.312 817.376 381.431 803.642 392.623 C 786.918 406.253 770.173 420.201 753.391 433.727 C 676.874 494.908 601.215 557.156 526.437 620.453 C 516.91 628.429 448.405 687.411 439.9 690.268 C 441.382 683.328 441.622 669.532 443.32 660.575 C 448.27 634.46 452.428 607.762 457.291 581.67 C 462.28 554.907 467.259 528.146 472.292 501.408 C 475.938 482.042 481.836 463.392 483.267 443.63 C 484.49 441.044 487.323 421.49 487.995 417.499 C 488.344 396.56 491.548 357.83 502.811 340.295 z" fill="rgb(254,254,254)" transform="translate(0,0)"></path>
<path d="M 502.811 340.295 C 504.304 339.804 513.316 336.792 514.163 336.817 C 538.895 337.559 564.233 337.953 588.911 338.959 L 771.901 347.171 C 790.456 347.875 813.087 343.092 832.62 345.927 C 839.782 346.966 847.158 346.288 847.548 355.531 C 846.21 358.099 846.39 358 843.999 359.59 C 845.124 356.396 845.142 356.637 844.188 353.397 C 840.893 349.806 836.242 349.611 831.57 349.55 C 740.298 348.359 649.134 345.977 557.912 342.342 C 544.855 341.822 516.831 340.33 505.089 343.368 C 498.941 350.98 492.221 402.574 487.995 417.499 C 488.344 396.56 491.548 357.83 502.811 340.295 z" fill="rgb(106,88,128)" transform="translate(0,0)"></path>
<metadata><recraft-signature>{"signed_by": "recraft", "signature_b64": "skT0PcGJJh7Nx2VbIqfJ5xItMYhmOlvOPoasLHfBzUyF1KHMeVo60UkQVevWcnQfamErKuI/cVSV0IjrcFtiAw==", "signing_algo": "Ed25519", "generation_timestamp": 1772637598, "identifier": "9098b8ed-b97c-4781-9b42-7daa9f9bd8a2"}</recraft-signature></metadata></svg>